<?xml version="1.0" encoding="UTF-8"?>
<!DOCTYPE svg PUBLIC "-//W3C//DTD SVG 1.1//EN" "http://www.w3.org/Graphics/SVG/1.1/DTD/svg11.dtd">
<!-- Creator: CorelDRAW X8 -->
<svg xmlns="http://www.w3.org/2000/svg" xml:space="preserve" width="20.2352mm" height="4.0638mm" version="1.1" style="shape-rendering:geometricPrecision; text-rendering:geometricPrecision; image-rendering:optimizeQuality; fill-rule:evenodd; clip-rule:evenodd"
viewBox="0 0 20235 4064"
 xmlns:xlink="http://www.w3.org/1999/xlink">
 <defs>
  <style type="text/css">
   <![CDATA[
    .fil3 {fill:#22201E}
    .fil0 {fill:#2262AB}
    .fil1 {fill:#4099FF}
    .fil2 {fill:#B2D6FF}
   ]]>
  </style>
 </defs>
 <g id="Слой_x0020_1">
  <metadata id="CorelCorpID_0Corel-Layer"/>
  <polygon id="Fill-4" class="fil0" points="4306,89 2865,823 5545,2378 6880,1600 "/>
  <polygon id="Fill-5" class="fil1" points="2865,2378 4205,3160 5545,3941 5545,2378 2865,814 "/>
  <polygon id="Fill-6" class="fil2" points="5545,2378 5545,3941 6885,3164 6885,1601 "/>
  <polygon id="Fill-4_0" class="fil0" points="1628,89 187,823 2868,2378 4202,1600 "/>
  <polygon id="Fill-5_1" class="fil1" points="187,2378 1528,3160 2868,3941 2868,2378 187,823 "/>
  <polygon id="Fill-6_2" class="fil2" points="2868,2378 2868,3941 4208,3164 4201,1601 "/>
  <polygon id="Fill-7" class="fil3" points="9861,2351 9861,862 11400,862 11400,2351 11221,2351 11221,1046 10040,1046 10040,2351 "/>
  <polygon id="Fill-8" class="fil3" points="13137,927 13137,2351 12958,2351 12958,1148 12367,1755 11777,1148 11777,2351 11598,2351 11598,927 11598,862 11751,862 12367,1495 12984,862 13137,862 "/>
  <polygon id="Fill-9" class="fil3" points="16612,862 16612,2351 15073,2351 15073,2167 15252,2167 16433,2167 16433,862 "/>
  <path id="Fill-10" class="fil3" d="M9950 862l1450 0 0 893 -1539 0 0 -893 89 0zm90 707l1181 0 0 -521 -1181 0 0 521z"/>
  <polygon id="Fill-11" class="fil3" points="16810,2351 16810,1576 17623,1576 17803,1755 17549,1756 16990,1756 16990,2351 "/>
  <path id="Fill-12" class="fil3" d="M16900 862l1449 0 0 893 -1539 0 0 -893 90 0zm89 707l1181 0 0 -521 -1181 0 0 521z"/>
  <polygon id="Fill-13" class="fil3" points="13439,862 14891,862 14891,1048 14710,1048 13528,1048 13528,1584 14588,1584 14742,1755 13350,1755 13350,862 "/>
  <path id="Fill-14" class="fil3" d="M14799 2351l-1449 0 0 -782 1541 0 -3 782 -89 0zm-1271 -184l1182 0 0 -425 -1182 0 0 425z"/>
  <path id="Fill-15" class="fil3" d="M8408 3321c0,0 23,5 44,5 23,0 43,-5 43,-5l-175 -262 163 -229c0,0 -20,-5 -42,-5 -22,0 -44,5 -44,5l-146 202 -62 16 0 -218c0,0 -20,-5 -41,-5 -22,0 -42,5 -42,5l0 491c0,0 20,5 42,5 20,0 41,-5 41,-5l0 -215 62 -17 157 232zm147 -150c0,100 57,158 204,158 147,0 204,-58 204,-158l0 -191c0,-100 -57,-158 -204,-158 -147,0 -204,58 -204,158l0 191zm83 -191c0,-70 31,-103 121,-103 90,0 121,33 121,103l0 191c0,70 -31,103 -121,103 -90,0 -121,-33 -121,-103l0 -191zm850 -150c0,0 -21,-5 -42,-5 -20,0 -41,5 -41,5l0 210 -237 0 0 -210c0,0 -20,-5 -41,-5 -22,0 -42,5 -42,5l0 491c0,0 20,5 42,5 20,0 41,-5 41,-5l0 -226 237 0 0 226c0,0 21,5 41,5 21,0 42,-5 42,-5l0 -491zm496 52c0,0 5,-11 5,-27 0,-17 -5,-28 -5,-28l-397 0c0,0 -5,11 -5,28 0,16 5,27 5,27l159 0 0 439c0,0 19,5 41,5 20,0 41,-5 41,-5l0 -439 156 0zm81 289c0,100 58,158 215,158 111,0 168,-35 168,-35 0,0 6,-11 6,-27 0,-17 -6,-28 -6,-28 0,0 -63,35 -168,35 -101,0 -132,-33 -132,-103l0 -70 157 0c99,0 158,-8 158,-8l0 -113c0,-100 -47,-158 -197,-158 -147,0 -201,58 -201,158l0 191zm83 -125l0 -66c0,-70 28,-103 118,-103 90,0 118,33 118,103l0 66 -236 0zm641 -301c101,0 131,-37 131,-104l0 -10c0,0 -14,-5 -28,-5 -15,0 -29,5 -29,5l0 11c0,43 -18,62 -74,62 -57,0 -75,-19 -75,-62l0 -11c0,0 -13,-5 -28,-5 -15,0 -29,5 -29,5l0 10c0,67 30,104 132,104zm203 85c0,0 -18,-5 -37,-5 -19,0 -37,5 -37,5l-250 367 0 -367c0,0 -20,-5 -41,-5 -22,0 -42,5 -42,5l0 491c0,0 18,5 38,5 18,0 37,-5 37,-5l250 -367 0 367c0,0 20,5 41,5 21,0 41,-5 41,-5l0 -491zm527 0c0,0 -20,-5 -41,-5 -21,0 -40,5 -40,5l0 210 -239 0 0 -210c0,0 -19,-5 -40,-5 -22,0 -43,5 -43,5l0 491c0,0 21,5 43,5 19,0 40,-5 40,-5l0 -226 239 0 0 226c0,0 19,5 40,5 21,0 41,-5 41,-5l0 -491zm123 341c0,100 58,158 215,158 111,0 168,-35 168,-35 0,0 6,-11 6,-27 0,-17 -6,-28 -6,-28 0,0 -63,35 -168,35 -101,0 -132,-33 -132,-103l0 -70 157 0c99,0 158,-8 158,-8l0 -113c0,-100 -47,-158 -197,-158 -147,0 -201,58 -201,158l0 191zm83 -125l0 -66c0,-70 28,-103 118,-103 90,0 118,33 118,103l0 66 -236 0zm520 -216c0,0 -20,-5 -41,-5 -22,0 -42,5 -42,5l0 689c0,0 20,6 42,6 21,0 41,-6 41,-6l0 -235c3,5 34,45 141,45 125,0 172,-58 172,-158l0 -191c0,-100 -40,-158 -147,-158 -108,0 -166,48 -166,48l0 -40zm230 341c0,70 -24,103 -103,103 -95,0 -127,-33 -127,-103l0 -246c0,0 38,-48 139,-48 70,0 91,33 91,103l0 191zm607 -341c0,0 -19,-5 -40,-5 -22,0 -41,5 -41,5l0 210 -238 0 0 -210c0,0 -20,-5 -41,-5 -22,0 -42,5 -42,5l0 491c0,0 20,5 42,5 20,0 41,-5 41,-5l0 -226 238 0 0 226c0,0 19,5 41,5 21,0 40,-5 40,-5l0 -491zm208 0c0,0 -21,-5 -41,-5 -22,0 -41,5 -41,5l0 489c0,0 74,8 187,8 131,0 182,-50 182,-138l0 -28c0,-88 -49,-139 -178,-139 -64,0 -109,4 -109,4l0 -196zm105 246c74,0 100,28 100,85l0 28c0,56 -26,84 -100,84l-105 0 0 -197 105 0zm353 -246c0,0 -19,-5 -41,-5 -21,0 -41,5 -41,5l0 491c0,0 20,5 41,5 21,0 41,-5 41,-5l0 -491zm329 -85c101,0 131,-37 131,-104l0 -10c0,0 -14,-5 -28,-5 -15,0 -29,5 -29,5l0 11c0,43 -18,62 -74,62 -57,0 -75,-19 -75,-62l0 -11c0,0 -13,-5 -28,-5 -15,0 -29,5 -29,5l0 10c0,67 30,104 132,104zm203 85c0,0 -18,-5 -37,-5 -19,0 -37,5 -37,5l-250 367 0 -367c0,0 -20,-5 -41,-5 -22,0 -42,5 -42,5l0 491c0,0 18,5 38,5 18,0 37,-5 37,-5l250 -367 0 367c0,0 20,5 41,5 21,0 41,-5 41,-5l0 -491zm409 52l221 0c0,0 5,-11 5,-27 0,-17 -5,-28 -5,-28l-103 0c-121,0 -200,7 -200,7l0 487c0,0 20,5 41,5 21,0 41,-5 41,-5l0 -439zm726 -52c0,0 -18,-5 -37,-5 -19,0 -37,5 -37,5l-250 367 0 -367c0,0 -20,-5 -41,-5 -21,0 -42,5 -42,5l0 491c0,0 18,5 38,5 18,0 37,-5 37,-5l250 -367 0 367c0,0 20,5 41,5 21,0 41,-5 41,-5l0 -491zm167 496c20,0 41,-5 41,-5l0 -439 239 0 0 439c0,0 20,5 41,5 21,0 41,-5 41,-5l0 -487c0,0 -81,-9 -202,-9 -121,0 -202,9 -202,9l0 487c0,0 20,5 42,5zm484 -155c0,100 58,158 215,158 110,0 167,-35 167,-35 0,0 7,-11 7,-27 0,-17 -7,-28 -7,-28 0,0 -62,35 -167,35 -101,0 -132,-33 -132,-103l0 -70 157 0c99,0 158,-8 158,-8l0 -113c0,-100 -47,-158 -197,-158 -147,0 -201,58 -201,158l0 191zm83 -125l0 -66c0,-70 28,-103 118,-103 90,0 118,33 118,103l0 66 -236 0zm519 -216c0,0 -19,-5 -41,-5 -22,0 -42,5 -42,5l0 689c0,0 20,6 42,6 22,0 41,-6 41,-6l0 -235c3,5 34,45 141,45 125,0 172,-58 172,-158l0 -191c0,-100 -40,-158 -147,-158 -107,0 -166,48 -166,48l0 -40zm230 341c0,70 -24,103 -103,103 -95,0 -127,-33 -127,-103l0 -246c0,0 38,-48 139,-48 70,0 91,33 91,103l0 191zm733 -341c0,0 -25,-5 -53,-5 -27,0 -51,5 -51,5l-161 345 -159 -345c0,0 -24,-5 -52,-5 -27,0 -52,4 -52,5l0 491c0,0 18,5 38,5 18,0 37,-5 37,-5l0 -387 149 320c0,0 18,4 39,4 22,0 39,-4 39,-4l151 -320 0 387c0,0 18,5 37,5 19,0 38,-5 38,-5l0 -491zm433 491c0,0 19,5 41,5 21,0 40,-5 40,-5l0 -347c0,-97 -51,-152 -194,-152 -145,0 -189,55 -189,150l0 12c0,0 19,5 40,5 20,0 39,-5 39,-5l0 -12c0,-65 27,-95 110,-95 84,0 113,31 113,97l0 55 -131 14c-129,14 -180,57 -180,137l0 14c0,86 38,135 138,135 113,0 173,-48 173,-48l0 40zm0 -239l0 143c0,0 -40,49 -143,49 -65,0 -85,-26 -85,-80l0 -14c0,-47 27,-75 111,-84l117 -14zm290 -252c0,0 -21,-5 -42,-5 -22,0 -41,5 -41,5l0 689c0,0 19,6 41,6 21,0 42,-6 42,-6l0 -235c2,5 33,45 140,45 125,0 172,-58 172,-158l0 -191c0,-100 -40,-158 -147,-158 -108,0 -165,48 -165,48l0 -40zm229 341c0,70 -24,103 -103,103 -95,0 -126,-33 -126,-103l0 -246c0,0 38,-48 138,-48 70,0 91,33 91,103l0 191zm507 150c0,0 23,5 44,5 23,0 43,-5 43,-5l-175 -262 163 -229c0,0 -20,-5 -42,-5 -22,0 -44,5 -44,5l-146 202 -62 16 0 -218c0,0 -20,-5 -41,-5 -22,0 -42,5 -42,5l0 491c0,0 20,5 42,5 20,0 41,-5 41,-5l0 -215 62 -17 157 232zm147 -150c0,100 58,158 215,158 111,0 168,-35 168,-35 0,0 6,-11 6,-27 0,-17 -6,-28 -6,-28 0,0 -63,35 -168,35 -101,0 -132,-33 -132,-103l0 -70 157 0c99,0 158,-8 158,-8l0 -113c0,-100 -47,-158 -197,-158 -147,0 -201,58 -201,158l0 191zm83 -125l0 -66c0,-70 28,-103 118,-103 90,0 118,33 118,103l0 66 -236 0zm789 -164c0,0 5,-11 5,-27 0,-17 -5,-28 -5,-28l-398 0c0,0 -4,11 -4,28 0,16 4,27 4,27l160 0 0 439c0,0 20,5 42,5 20,0 40,-5 40,-5l0 -439 156 0z"/>
  <polygon id="Fill-17" class="fil3" points="9666,1046 9666,862 8106,862 8106,2351 8288,2351 8288,2167 8288,1046 9485,1046 "/>
  <polygon id="Fill-19" class="fil3" points="16612,862 16612,1754 15072,1754 15072,862 15251,862 15251,1568 16433,1568 16433,862 "/>
  <g id="Group-23">
   <g id="Clip-22">
   </g>
   <polygon id="Fill-21" class="fil3" points="20115,1046 20115,862 18554,862 18554,2351 18736,2351 18736,2167 18736,1046 19933,1046 "/>
  </g>
 </g>
</svg>
